<?xml version="1.0" standalone="no"?>
<!DOCTYPE svg PUBLIC "-//W3C//DTD SVG 20010904//EN"
 "http://www.w3.org/TR/2001/REC-SVG-20010904/DTD/svg10.dtd">
<svg version="1.0" xmlns="http://www.w3.org/2000/svg"
 width="571.000000pt" height="181.000000pt" viewBox="0 0 571.000000 181.000000"
 preserveAspectRatio="xMidYMid meet">

<g transform="translate(0.000000,181.000000) scale(0.100000,-0.100000)"
fill="#000000" stroke="none">
<path d="M173 1794 c-48 -18 -123 -80 -152 -128 -21 -33 -21 -43 -21 -763 l0
-729 29 -46 c33 -52 85 -94 138 -114 31 -11 499 -13 2681 -14 l2643 0 54 26
c31 14 72 45 94 70 74 84 72 58 69 820 l-3 679 -24 49 c-31 63 -82 113 -146
143 l-50 23 -2635 -1 c-2299 0 -2640 -2 -2677 -15z m1068 -322 c30 -9 66 -25
80 -35 l24 -18 -25 6 c-19 5 -22 4 -10 -4 8 -6 23 -8 34 -5 12 4 29 -5 52 -27
33 -32 33 -33 14 -49 -11 -10 -20 -27 -20 -39 0 -11 -3 -21 -6 -21 -19 0 -93
58 -96 74 -2 11 -10 22 -18 24 -13 5 -13 3 0 -13 14 -17 13 -18 -4 -12 -101
38 -212 35 -306 -9 -81 -38 -137 -94 -181 -180 -26 -53 -34 -62 -40 -48 -7 17
-8 17 -8 -3 -1 -12 -8 -28 -16 -37 -13 -13 -13 -15 7 -19 13 -2 -2 -5 -32 -5
-37 0 -49 2 -35 8 17 6 13 9 -20 14 -22 4 -51 9 -65 12 -14 3 -35 6 -48 6 -22
0 -21 1 8 23 18 13 51 26 73 30 69 11 73 14 86 58 34 113 171 234 311 273 66
18 176 17 241 -4z m1339 -237 c34 -17 80 -65 91 -93 17 -44 12 -52 -35 -52
-36 0 -46 4 -51 20 -11 35 -54 60 -102 60 -85 0 -135 -83 -118 -196 17 -113
160 -153 211 -59 17 31 23 35 61 35 23 0 44 -4 47 -9 11 -17 -41 -97 -83 -126
-38 -27 -51 -30 -115 -30 -63 0 -79 4 -121 30 -69 43 -100 104 -99 199 2 106
37 176 109 214 58 31 151 34 205 7z m248 -217 l2 -228 -45 0 -45 0 0 231 0
230 43 -3 42 -3 3 -227z m1192 2 l0 -230 -39 0 c-25 0 -41 5 -45 15 -4 12 -11
11 -41 -6 -98 -58 -224 30 -225 155 0 51 34 120 72 147 39 28 121 31 161 5
l27 -18 0 74 c0 41 3 78 7 81 3 4 24 7 45 7 l38 0 0 -230z m-2106 114 c-7 -3
-10 -14 -7 -24 4 -16 0 -20 -21 -20 -19 0 -26 5 -26 18 0 25 9 32 39 31 14 0
21 -3 15 -5z m1208 -14 c115 -32 164 -160 101 -258 -95 -146 -333 -81 -333 90
0 79 42 137 117 163 47 17 67 18 115 5z m268 -108 c0 -126 11 -152 64 -152 63
0 71 15 74 144 l4 116 44 0 44 0 0 -165 0 -165 -45 0 c-25 0 -45 4 -45 9 0 6
-17 3 -37 -6 -43 -18 -102 -13 -139 12 -42 27 -54 72 -54 200 l0 115 45 0 45
0 0 -108z m-2907 21 c-17 -26 -35 -31 -27 -8 4 8 10 15 15 15 5 0 9 5 9 12 0
6 -13 -1 -30 -17 -37 -35 -40 -22 -4 16 20 21 29 25 39 16 10 -9 9 -16 -2 -34z
m107 33 c0 -2 -7 -6 -15 -10 -8 -3 -15 -1 -15 4 0 6 7 10 15 10 8 0 15 -2 15
-4z m-50 -62 c0 0 -14 -13 -31 -30 -27 -24 -30 -26 -20 -6 8 15 8 22 1 22 -6
0 -9 4 -6 9 4 6 56 11 56 5z m902 -54 l239 0 -23 -40 c-13 -22 -33 -52 -44
-67 l-21 -27 -314 2 -314 2 -50 -25 c-114 -56 -138 -188 -51 -283 43 -48 73
-57 216 -62 l135 -5 0 -65 0 -65 -124 -3 c-224 -5 -337 54 -406 213 -27 63
-24 168 7 235 69 151 176 204 392 195 66 -3 227 -5 358 -5z m1024 -304 c10 -8
16 -18 12 -22 -4 -4 -14 -1 -23 6 -16 13 -45 7 -45 -9 0 -5 16 -15 36 -21 30
-10 35 -16 32 -38 -2 -22 -9 -28 -34 -30 -18 -2 -36 3 -43 12 -11 13 -8 14 23
9 46 -7 50 17 6 34 -38 14 -49 41 -25 59 24 18 36 18 61 0z m244 -51 c0 -37
-4 -65 -10 -65 -6 0 -10 28 -10 65 0 37 4 65 10 65 6 0 10 -28 10 -65z m340
55 c0 -5 -4 -10 -10 -10 -5 0 -10 5 -10 10 0 6 5 10 10 10 6 0 10 -4 10 -10z
m649 0 c15 -7 18 -21 17 -62 l-1 -53 -42 -3 -43 -3 0 59 c0 32 3 62 7 65 9 10
42 8 62 -3z m741 -56 l0 -65 -42 3 c-39 3 -43 6 -46 31 -4 35 13 57 44 57 17
0 24 6 24 20 0 11 5 20 10 20 6 0 10 -29 10 -66z m295 56 c3 -5 1 -10 -4 -10
-6 0 -11 5 -11 10 0 6 2 10 4 10 3 0 8 -4 11 -10z m285 0 c0 -5 -5 -10 -11
-10 -5 0 -7 5 -4 10 3 6 8 10 11 10 2 0 4 -4 4 -10z m-410 -50 c0 -47 2 -50
25 -50 14 0 25 -4 25 -10 0 -5 -16 -10 -35 -10 l-35 0 0 60 c0 33 4 60 10 60
6 0 10 -22 10 -50z m513 12 c-17 -4 -17 -54 0 -71 10 -10 8 -12 -8 -9 -15 2
-21 13 -25 43 -3 22 -2 48 2 57 8 17 9 17 26 0 13 -12 14 -18 5 -20z m-2163
13 c9 -10 9 -15 1 -15 -15 0 -14 -53 2 -69 10 -10 8 -12 -8 -9 -15 2 -21 12
-23 41 -2 20 -8 37 -13 37 -10 0 11 29 22 30 4 0 12 -7 19 -15z m-342 -17 c28
-28 7 -78 -33 -78 -27 0 -45 18 -45 45 0 27 18 45 45 45 12 0 26 -5 33 -12z
m182 -23 c0 -28 4 -35 20 -35 16 0 20 7 20 35 0 19 5 35 10 35 6 0 10 -21 10
-46 l0 -45 -37 3 c-37 3 -38 4 -41 46 -2 25 1 42 7 42 6 0 11 -16 11 -35z
m250 -10 c0 -25 -4 -45 -10 -45 -5 0 -10 20 -10 45 0 25 5 45 10 45 6 0 10
-20 10 -45z m138 33 c28 -28 7 -78 -33 -78 -27 0 -45 18 -45 45 0 27 18 45 45
45 12 0 26 -5 33 -12z m150 0 c14 -14 16 -78 3 -78 -6 0 -11 17 -13 38 -2 29
-7 37 -23 37 -16 0 -21 -8 -23 -37 -4 -53 -22 -47 -22 7 0 44 1 45 33 45 18 0
38 -5 45 -12z m138 0 c5 -8 0 -9 -14 -6 -32 9 -36 -7 -6 -21 35 -16 28 -46
-10 -46 -16 0 -31 6 -34 13 -3 11 0 12 16 3 14 -7 23 -8 27 -1 3 6 -5 14 -19
20 -25 9 -34 29 -19 43 11 11 51 8 59 -5z m383 -7 c13 -23 5 -31 -31 -31 -15
0 -28 -4 -28 -10 0 -5 14 -10 31 -10 17 0 28 -4 24 -10 -9 -14 -48 -13 -63 2
-7 7 -12 21 -12 33 0 43 60 63 79 26z m87 -6 c3 -14 10 -25 15 -25 5 0 11 11
15 25 3 14 11 25 16 25 17 0 -21 -112 -43 -125 -17 -11 -21 1 -8 22 9 15 8 26
-5 51 -18 35 -20 52 -6 52 5 0 12 -11 16 -25z m194 6 c17 -33 -4 -71 -40 -71
-38 0 -59 35 -41 69 15 28 66 29 81 2z m148 -28 c2 -26 -1 -43 -7 -43 -6 0
-11 15 -11 34 0 62 -45 55 -53 -7 -3 -23 -4 -19 -5 16 l-2 48 38 -3 c36 -3 37
-4 40 -45z m452 2 c0 -25 -4 -45 -10 -45 -5 0 -10 20 -10 45 0 25 5 45 10 45
6 0 10 -20 10 -45z m198 -2 c2 -24 -1 -43 -7 -43 -5 0 -11 17 -13 38 -2 25 -8
37 -18 37 -10 0 -16 -12 -18 -37 -4 -47 -22 -50 -22 -5 0 38 -6 48 -26 40 -8
-3 -14 -19 -14 -39 0 -19 -4 -34 -10 -34 -5 0 -10 20 -10 45 l0 46 68 -3 67
-3 3 -42z m82 2 c0 -25 -4 -45 -10 -45 -5 0 -10 20 -10 45 0 25 5 45 10 45 6
0 10 -20 10 -45z m236 34 c5 -9 -1 -10 -20 -5 -33 8 -34 -7 0 -23 35 -16 29
-46 -10 -46 -16 0 -31 6 -34 13 -3 11 0 12 16 3 26 -14 32 -14 32 -1 0 6 -11
15 -25 20 -24 9 -32 29 -18 43 11 11 51 8 59 -4z"/>
<path d="M675 1140 c3 -5 12 -7 20 -3 21 7 19 13 -6 13 -11 0 -18 -4 -14 -10z"/>
<path d="M625 1130 c-19 -8 -19 -9 2 -9 12 -1 25 4 28 9 7 12 -2 12 -30 0z"/>
<path d="M673 1113 c9 -2 23 -2 30 0 6 3 -1 5 -18 5 -16 0 -22 -2 -12 -5z"/>
<path d="M550 1100 c8 -5 22 -10 30 -10 13 0 13 1 0 10 -8 5 -22 10 -30 10
-13 0 -13 -1 0 -10z"/>
<path d="M630 1100 c8 -5 20 -10 25 -10 6 0 3 5 -5 10 -8 5 -19 10 -25 10 -5
0 -3 -5 5 -10z"/>
<path d="M3797 1030 c-31 -25 -43 -74 -27 -114 15 -40 38 -55 82 -56 48 0 78
36 78 94 0 46 -5 55 -40 79 -33 23 -62 21 -93 -3z"/>
<path d="M3010 1022 c-45 -46 -38 -124 16 -152 31 -17 95 -6 117 21 44 54 6
144 -65 156 -32 5 -41 1 -68 -25z"/>
<path d="M3652 623 c4 -20 18 -26 37 -14 18 12 5 31 -20 31 -14 0 -19 -6 -17
-17z"/>
<path d="M3650 571 c0 -16 6 -21 26 -21 33 0 30 33 -4 38 -17 3 -22 -2 -22
-17z"/>
<path d="M4377 603 c-4 -3 -7 -17 -7 -30 0 -16 6 -23 20 -23 25 0 36 25 20 45
-14 16 -23 19 -33 8z"/>
<path d="M2567 603 c-4 -3 -7 -17 -7 -30 0 -18 5 -23 25 -23 20 0 25 5 25 24
0 13 -7 27 -16 30 -19 7 -19 7 -27 -1z"/>
<path d="M3143 603 c-17 -6 -17 -38 0 -51 18 -16 39 1 35 28 -3 25 -14 32 -35
23z"/>
<path d="M3805 600 c-4 -6 6 -10 22 -10 22 0 25 2 13 10 -19 12 -27 12 -35 0z"/>
<path d="M4082 598 c-17 -17 -15 -36 7 -47 25 -14 50 13 35 37 -14 21 -27 25
-42 10z"/>
</g>
</svg>
